<?xml version="1.0" standalone="no"?>
<!DOCTYPE svg PUBLIC "-//W3C//DTD SVG 20010904//EN"
 "http://www.w3.org/TR/2001/REC-SVG-20010904/DTD/svg10.dtd">
<svg version="1.0" xmlns="http://www.w3.org/2000/svg"
 width="308.7612359841165" height="304.915625" viewBox="0 0 500.000000 500.000000"
 preserveAspectRatio="xMidYMid meet">

<g transform="translate(0.000000,500.000000) scale(0.100000,-0.100000)"
fill="#000000" stroke="none">
<path d="M2013 4245 c-6 -11 -21 -67 -33 -124 -33 -151 -25 -247 31 -406 42
-119 43 -122 43 -260 1 -91 -4 -158 -13 -190 -17 -61 -102 -247 -110 -240 -3
3 -8 86 -11 184 -5 171 -6 179 -34 232 -16 30 -38 73 -50 97 -11 23 -23 42
-27 42 -15 0 -31 -105 -27 -176 4 -65 12 -89 63 -192 41 -85 58 -132 62 -172
5 -52 2 -63 -46 -158 -29 -57 -61 -126 -72 -155 -12 -29 -26 -63 -31 -77 l-10
-25 -9 24 c-5 13 -18 81 -29 150 -27 165 -42 210 -100 285 -26 34 -55 76 -64
94 -25 49 -36 39 -36 -35 1 -138 42 -256 130 -373 49 -65 89 -145 91 -180 1
-14 -6 -65 -15 -114 -9 -49 -16 -138 -16 -199 l0 -111 -43 85 c-59 114 -91
164 -145 222 -46 48 -178 134 -189 123 -11 -11 37 -181 68 -243 44 -86 135
-175 238 -232 l84 -46 23 -100 c12 -55 25 -107 29 -116 3 -9 -15 4 -42 28
-106 99 -323 195 -323 143 0 -19 90 -127 126 -152 59 -41 146 -78 212 -90 59
-11 60 -11 87 -67 47 -96 135 -225 146 -214 7 7 -1 26 -25 58 -20 26 -48 67
-63 92 -40 68 -103 220 -103 247 0 18 15 36 56 68 92 70 171 221 181 343 3 42
1 65 -9 79 -13 17 -18 14 -79 -52 -77 -83 -133 -184 -158 -283 l-19 -73 -13
74 c-7 41 -13 134 -13 207 -1 157 -2 154 139 238 50 29 112 72 138 95 50 44
115 133 141 191 8 19 15 27 15 17 1 -12 15 -21 44 -28 131 -33 227 -91 343
-205 117 -116 261 -338 455 -698 119 -222 228 -351 319 -377 19 -5 158 -10
309 -10 245 0 273 2 267 16 -3 9 -6 20 -6 25 0 5 -19 9 -42 9 -131 1 -277 68
-388 180 -87 87 -151 181 -291 427 -194 340 -311 488 -478 608 l-54 39 69 12
c260 44 497 254 561 495 20 78 22 241 4 319 -47 198 -195 341 -426 413 -133
41 -256 58 -477 64 l-208 6 0 -45 0 -45 183 -6 c269 -7 397 -47 507 -157 97
-97 140 -219 140 -400 0 -185 -46 -307 -150 -403 -126 -117 -269 -166 -515
-174 l-160 -6 -44 -38 c-23 -21 -86 -61 -140 -90 -103 -54 -155 -98 -202 -168
-37 -56 -37 -42 0 68 32 95 56 147 178 381 45 85 88 178 98 207 19 61 63 105
154 153 83 44 157 127 215 239 26 51 46 96 44 101 -3 9 -218 -149 -276 -204
-19 -17 -51 -62 -73 -101 l-39 -70 0 93 c0 51 -5 124 -11 162 -8 54 -7 83 5
144 20 94 20 172 1 256 -9 36 -24 110 -34 165 -15 82 -20 96 -28 80z m17 -195
c2 39 4 46 7 25 3 -16 1 -68 -3 -115 l-8 -85 -7 60 c-4 33 -6 101 -6 150 l1
90 6 -90 c5 -79 7 -83 10 -35z m-33 33 c-3 -10 -5 -4 -5 12 0 17 2 24 5 18 2
-7 2 -21 0 -30z m70 -268 l0 -50 -7 55 c-5 30 -8 82 -7 115 l0 60 7 -65 c4
-36 8 -87 7 -115z m-72 113 c-4 -24 -1 -65 5 -92 6 -27 9 -51 6 -53 -2 -2 -9
19 -16 47 -11 46 -7 140 6 140 3 0 2 -19 -1 -42z m62 -200 c-3 -7 -5 -2 -5 12
0 14 2 19 5 13 2 -7 2 -19 0 -25z m309 -109 c-25 -22 -46 -46 -46 -52 0 -6 19
7 42 28 40 37 41 37 10 4 -32 -35 -34 -61 -3 -36 9 6 4 -4 -10 -23 -15 -19
-30 -35 -35 -36 -21 -2 -43 -17 -38 -26 3 -5 13 -4 22 4 10 7 4 -2 -12 -20
-20 -21 -33 -29 -41 -22 -6 5 -16 5 -25 0 -8 -6 -11 -10 -6 -10 5 0 3 -7 -4
-15 -7 -8 -17 -12 -22 -9 -5 3 -2 14 8 25 9 10 13 19 9 19 -4 0 -1 8 8 18 13
14 14 21 5 30 -9 9 -23 -4 -61 -56 -59 -81 -68 -90 -37 -37 32 55 91 127 98
120 3 -3 25 14 49 37 24 23 43 38 43 34 0 -5 18 8 40 28 22 20 43 36 46 36 4
0 -14 -18 -40 -41z m-531 -149 c-5 35 -4 35 10 10 8 -14 15 -36 15 -50 0 -18
3 -21 9 -12 12 20 20 -17 25 -124 4 -69 3 -79 -4 -44 -5 25 -9 70 -10 100 l-2
55 -8 -40 c-5 -22 -7 -62 -5 -90 3 -37 1 -45 -6 -32 -6 9 -8 27 -4 40 5 20 5
20 -10 -3 l-16 -25 7 24 c4 15 2 21 -4 17 -6 -4 -8 3 -5 16 4 19 3 20 -6 8
-12 -17 -13 -4 -2 25 7 17 9 16 16 -13 4 -18 9 -32 11 -29 2 2 -5 37 -15 78
-11 41 -20 63 -20 50 -1 -13 -3 -22 -6 -19 -4 3 -3 30 1 59 l8 54 13 -45 c11
-38 12 -39 8 -10z m-19 -106 c-4 -14 -9 -24 -12 -21 -3 2 -2 17 2 31 3 15 9
25 11 22 3 -3 2 -17 -1 -32z m-273 -239 c-3 -9 -1 -15 3 -13 15 5 52 -35 67
-71 8 -18 18 -32 23 -31 5 1 17 -26 28 -60 15 -50 16 -66 7 -84 -9 -16 -9 -29
-1 -50 6 -16 9 -31 6 -33 -2 -2 -14 25 -27 61 -20 54 -25 62 -35 48 -10 -13
-8 -25 7 -57 15 -30 16 -35 4 -20 -32 38 -65 114 -58 131 5 13 3 15 -7 9 -8
-5 -11 -4 -7 2 4 6 1 29 -7 51 -8 22 -13 59 -11 83 4 50 3 49 10 49 2 0 2 -7
-2 -15z m557 -370 c-7 -8 -9 -15 -4 -15 4 0 -7 -15 -24 -33 -18 -18 -30 -36
-27 -39 10 -10 -30 -37 -43 -29 -10 6 -3 16 23 39 20 18 34 32 31 32 -2 0 -13
3 -23 6 -13 4 -14 3 -5 -3 10 -7 -2 -22 -45 -58 -78 -65 -82 -69 -53 -56 l25
12 -25 -20 c-13 -10 -28 -18 -31 -15 -4 2 -21 -8 -38 -22 -17 -14 -31 -22 -31
-18 0 4 -10 -1 -22 -12 -14 -12 -10 -3 10 23 60 78 212 196 239 186 8 -3 13 0
11 8 -2 7 2 13 9 14 6 0 15 3 19 8 13 13 17 7 4 -8z m-213 -113 c-21 -21 -44
-39 -53 -39 -10 0 -6 9 12 28 15 16 30 26 34 24 4 -3 13 2 20 10 7 8 15 15 18
15 3 0 -11 -17 -31 -38z m101 -17 c-2 -5 -11 -11 -22 -12 -16 -3 -17 -1 -6 12
14 16 34 16 28 0z m-8 -29 c0 -2 -12 -11 -27 -20 l-28 -17 24 20 c23 21 31 25
31 17z m-160 -10 c0 -2 -8 -10 -17 -17 -16 -13 -17 -12 -4 4 13 16 21 21 21
13z m-442 -35 c1 -1 5 -1 8 0 3 1 19 -11 34 -26 15 -15 32 -27 37 -28 10 -1
43 -42 43 -54 0 -4 -7 1 -15 11 -20 27 -19 11 1 -20 9 -13 15 -27 12 -29 -2
-3 -26 27 -53 66 -30 44 -51 66 -55 58 -6 -8 -11 -6 -19 7 -6 11 -10 15 -10 9
-1 -5 8 -21 19 -35 24 -31 26 -47 3 -29 -10 8 -7 -1 8 -21 89 -121 103 -138
111 -134 11 7 -8 41 -30 53 -9 6 -13 11 -9 11 4 0 -10 27 -33 59 -41 61 -48
77 -30 66 22 -14 150 -216 144 -227 -5 -7 -2 -8 7 -3 8 5 6 -1 -4 -13 -21 -23
-16 -42 11 -37 9 2 19 4 22 4 2 1 -1 6 -8 13 -16 16 -15 31 1 22 10 -6 10 -4
0 7 -18 19 -16 34 2 19 9 -7 13 -21 10 -31 -3 -9 0 -21 6 -25 8 -5 10 -2 7 8
-4 8 -2 21 2 29 9 13 -27 89 -53 114 -6 6 2 -12 17 -38 15 -27 26 -51 23 -53
-8 -8 -89 125 -82 136 10 17 35 -8 28 -27 -4 -11 -2 -14 5 -9 6 4 23 -12 40
-36 37 -55 65 -109 55 -107 -22 4 -23 -4 -3 -38 12 -21 16 -31 8 -23 -11 14
-20 16 -45 11 -3 0 2 -11 13 -23 19 -23 19 -23 -2 -5 -24 20 -40 11 -21 -12 6
-8 -2 -5 -19 7 -39 27 -147 142 -140 150 3 2 -4 18 -16 35 -11 16 -22 40 -24
54 -1 13 -8 30 -14 38 -7 8 -9 24 -5 36 6 16 4 20 -6 14 -8 -5 -11 -5 -7 -1 4
5 3 18 -2 31 -8 22 -3 25 28 16z m47 -108 l18 -28 -21 19 c-12 11 -22 23 -22
28 0 14 7 9 25 -19z m109 -84 c15 -22 26 -43 23 -45 -4 -4 -57 71 -57 81 0 12
9 3 34 -36z m442 -26 c-4 -9 -2 -21 2 -27 16 -20 23 -48 10 -40 -8 5 -9 -2 -4
-22 5 -23 4 -26 -5 -14 -9 12 -10 10 -5 -9 6 -31 -46 -138 -69 -138 -19 0 -14
22 6 22 9 0 13 9 11 25 -2 20 0 22 9 10 8 -12 9 -9 4 10 -5 20 -4 22 5 10 9
-12 10 -10 5 10 -4 16 -3 20 3 12 9 -13 12 6 14 81 1 20 3 25 9 15 10 -16 12
-6 3 17 -6 13 -9 14 -16 3 -10 -14 -9 -7 8 37 15 40 -5 7 -71 -115 -36 -69
-64 -113 -61 -97 13 56 -4 24 -30 -58 -15 -47 -28 -84 -30 -82 -15 15 79 263
96 252 3 -2 15 10 25 28 33 57 67 97 77 91 5 -3 7 -13 4 -21z m-39 -137 c-15
-31 -25 -62 -23 -69 1 -7 1 -8 -2 -4 -2 5 -11 -1 -19 -12 -14 -21 -9 -46 8
-36 19 13 8 -12 -22 -45 -17 -19 -26 -27 -19 -18 6 9 9 22 5 28 -4 6 -3 9 2 8
9 -3 13 5 13 25 0 6 -9 -1 -19 -16 -10 -16 -22 -27 -26 -25 -3 2 -13 -8 -22
-22 -8 -15 -11 -17 -7 -5 4 11 8 30 8 42 1 11 5 19 10 16 4 -3 5 5 1 18 -3 14
-3 19 2 12 5 -8 27 26 62 95 47 92 56 103 64 85 7 -16 3 -35 -16 -77z m-425
-200 c9 0 14 -4 12 -8 -6 -10 35 -31 51 -25 14 6 73 -30 117 -71 21 -19 25
-29 17 -39 -13 -15 -33 -7 -23 9 5 7 2 9 -8 5 -9 -3 -26 1 -38 10 -20 14 -23
14 -38 -2 -16 -17 -16 -17 1 -12 12 5 16 3 11 -5 -5 -8 -1 -9 12 -4 10 4 15 4
11 0 -4 -5 3 -14 15 -21 13 -7 19 -12 13 -12 -5 0 -37 14 -70 32 -48 25 -60
37 -59 55 1 13 -3 21 -10 19 -6 -3 -10 -10 -8 -16 1 -7 -2 -10 -7 -7 -5 3 -8
14 -7 24 2 9 -4 23 -13 30 -14 11 -14 11 2 6 27 -10 20 14 -10 31 -16 9 -19
13 -8 9 11 -4 28 -7 37 -8z"/>
<path d="M2275 3550 c-21 -21 -43 -36 -49 -33 -6 4 -3 -2 6 -13 17 -19 17 -21
0 -39 -17 -19 -16 -19 4 -2 25 21 41 23 25 3 -7 -8 -8 -17 -3 -20 6 -3 15 1
21 8 9 11 9 16 1 21 -8 5 -3 16 14 34 15 15 23 31 19 36 -5 4 -2 5 5 1 7 -5
11 -15 7 -25 -4 -10 -3 -13 4 -6 15 16 17 39 4 41 -7 1 -18 2 -24 3 -8 1 -8 6
1 16 24 29 4 14 -35 -25z m14 -7 c-12 -15 -12 -16 6 -10 14 5 11 0 -9 -17 -40
-33 -55 -21 -20 15 30 32 45 39 23 12z"/>
<path d="M2259 3513 c-13 -16 -12 -17 4 -4 9 7 17 15 17 17 0 8 -8 3 -21 -13z"/>
<path d="M1842 3415 c0 -11 4 -33 8 -50 7 -27 8 -27 8 -5 0 14 -4 36 -8 50 -6
20 -8 21 -8 5z"/>
<path d="M1556 3080 c4 -26 3 -31 -5 -20 -13 18 -13 3 -1 -25 l9 -20 1 20 1
20 9 -20 c5 -11 9 -27 9 -35 1 -13 0 -13 -10 0 -8 11 -9 9 -3 -10 4 -14 8 -36
9 -50 1 -14 6 -34 12 -44 10 -19 11 -19 21 1 9 16 4 40 -23 119 -19 55 -32 83
-29 64z m37 -147 c-4 -11 -3 -14 5 -9 8 5 10 2 6 -9 -10 -24 -16 -11 -20 37
-2 34 -1 38 6 20 5 -12 6 -30 3 -39z"/>
<path d="M1580 3075 c0 -5 5 -17 10 -25 5 -8 10 -10 10 -5 0 6 -5 17 -10 25
-5 8 -10 11 -10 5z"/>
<path d="M1604 3020 c28 -111 66 -188 66 -134 0 9 -5 12 -11 8 -7 -4 -9 0 -5
12 3 11 -1 39 -9 64 -7 25 -14 36 -15 25 -1 -16 -4 -14 -16 10 -8 17 -13 23
-10 15z"/>
<path d="M2073 2743 c4 -3 1 -13 -6 -22 -11 -14 -10 -14 5 -2 16 12 16 31 1
31 -4 0 -3 -3 0 -7z"/>
<path d="M1953 2661 c-32 -27 -74 -66 -93 -87 -22 -24 -12 -18 25 16 33 31 78
70 100 87 22 18 37 32 33 33 -4 0 -33 -22 -65 -49z"/>
<path d="M2019 2653 c-13 -16 -12 -17 4 -4 16 13 21 21 13 21 -2 0 -10 -8 -17
-17z"/>
<path d="M1854 2628 l-19 -23 23 19 c21 18 27 26 19 26 -2 0 -12 -10 -23 -22z"/>
<path d="M1450 2491 c0 -6 4 -13 10 -16 6 -3 7 1 4 9 -7 18 -14 21 -14 7z"/>
<path d="M1410 2385 c13 -14 26 -25 28 -25 3 0 -5 11 -18 25 -13 14 -26 25
-28 25 -3 0 5 -11 18 -25z"/>
<path d="M1479 2308 c24 -26 48 -45 52 -42 8 5 5 37 -6 54 -10 16 -25 1 -18
-18 4 -10 -10 -3 -33 18 -37 33 -36 32 5 -12z"/>
<path d="M1455 2300 c15 -19 47 -52 70 -72 42 -37 43 -37 60 -18 10 11 22 17
28 13 5 -3 7 -1 4 5 -6 8 -35 10 -44 2 -14 -11 -37 2 -87 49 -38 36 -50 44
-31 21z m135 -74 c0 -2 -6 -9 -14 -15 -11 -9 -16 -9 -22 0 -4 7 -3 9 4 5 6 -3
13 -2 17 4 6 10 15 14 15 6z"/>
<path d="M1606 2273 c-6 -14 -5 -15 5 -6 7 7 10 15 7 18 -3 3 -9 -2 -12 -12z"/>
<path d="M1846 2185 c-9 -26 -7 -32 5 -12 6 10 9 21 6 23 -2 3 -7 -2 -11 -11z"/>
<path d="M1887 2154 c-31 -63 -57 -118 -56 -122 0 -4 27 46 60 112 33 65 59
120 57 122 -2 2 -30 -48 -61 -112z"/>
<path d="M1519 1969 c-6 -31 -5 -36 9 -35 11 1 17 -7 17 -22 0 -35 32 -49 57
-25 22 22 28 14 -57 69 -14 9 -25 15 -26 13z m60 -65 c-13 -16 1 -19 19 -4 7
5 6 3 -2 -6 -14 -17 -41 -10 -31 7 4 5 0 9 -7 9 -10 0 -9 3 2 9 20 13 34 2 19
-15z"/>
<path d="M1600 1941 c14 -11 34 -27 45 -36 l20 -17 -20 7 c-15 5 -17 3 -8 -6
6 -6 22 -12 35 -13 13 -1 22 -7 20 -15 -1 -7 2 -10 8 -6 15 9 15 9 -42 52 -57
42 -100 68 -58 34z"/>
<path d="M2050 1411 c-87 -27 -150 -82 -135 -118 5 -14 9 -11 18 17 10 28 23
41 68 63 69 35 159 47 177 24 26 -31 -24 -92 -101 -125 -15 -7 -30 -12 -32
-12 -11 0 -4 47 10 73 10 21 11 27 2 25 -6 -3 -18 -23 -25 -46 -9 -28 -18 -39
-28 -35 -8 3 -14 -1 -14 -11 0 -9 5 -16 11 -16 12 0 8 -39 -6 -75 -8 -18 -7
-18 8 -6 9 7 17 22 17 32 0 25 3 24 38 -11 44 -44 112 -38 112 9 0 11 -5 9
-20 -7 -28 -29 -46 -28 -81 7 -36 37 -36 47 0 54 39 8 114 67 126 100 15 45
-3 62 -66 64 -30 1 -65 -2 -79 -6z"/>
<path d="M2631 1346 c-14 -17 -55 -176 -47 -183 3 -4 17 4 30 16 20 19 24 20
36 6 7 -8 26 -15 42 -15 31 0 88 28 88 42 0 5 -17 -1 -38 -13 -38 -22 -50 -22
-84 3 -14 10 -22 10 -39 0 -12 -8 -20 -10 -18 -5 2 4 19 38 38 75 30 61 34 88
12 88 -5 0 -14 -6 -20 -14z m3 -55 c-9 -23 -18 -40 -21 -38 -2 3 4 23 13 46 9
23 18 40 21 38 2 -3 -4 -23 -13 -46z"/>
<path d="M2425 1240 c-26 -27 -24 -45 1 -20 8 8 15 6 23 -4 18 -22 5 -39 -20
-26 -12 7 -19 7 -19 1 0 -34 82 -30 137 6 41 27 24 32 -22 6 -35 -19 -45 -21
-45 -10 0 8 -7 20 -15 27 -9 7 -13 21 -10 31 9 26 3 24 -30 -11z"/>
<path d="M2225 1250 c-3 -5 -2 -10 4 -10 5 0 13 5 16 10 3 6 2 10 -4 10 -5 0
-13 -4 -16 -10z"/>
<path d="M2827 1230 c-16 -13 -27 -31 -27 -46 0 -27 21 -32 40 -9 10 12 15 12
36 -2 21 -13 31 -14 63 -5 21 7 46 21 56 32 23 25 15 25 -29 -1 -50 -29 -88
-23 -102 19 l-10 33 -27 -21z m11 -29 c-7 -12 -16 -21 -21 -21 -8 0 -2 14 16
38 16 20 20 6 5 -17z"/>
<path d="M3088 1213 c-4 -35 -30 -37 -39 -3 l-7 25 -1 -25 c-1 -36 13 -55 35
-45 11 5 39 7 64 6 31 -1 55 5 79 19 46 29 33 36 -18 9 -50 -26 -92 -20 -88
13 1 11 -3 23 -10 25 -7 2 -13 -8 -15 -24z"/>
<path d="M2225 1216 c-11 -25 6 -50 38 -54 25 -3 100 29 112 48 9 15 2 13 -49
-16 -54 -30 -83 -26 -88 14 -4 24 -5 25 -13 8z"/>
</g>
</svg>
